<svg width="40" height="40" viewBox="0 0 40 40" fill="none" xmlns="http://www.w3.org/2000/svg">
<path d="M1.65784 3.83419C1.65784 2.63232 2.63214 1.65802 3.834 1.65802H36.1656C37.0481 1.65802 37.8433 2.19104 38.1786 3.0074C38.5139 3.82377 38.3228 4.7619 37.6951 5.38222L37.5849 5.49117L37.2627 5.80969C36.9805 6.08878 36.5665 6.49828 36.0397 7.01975C34.9861 8.0627 33.481 9.55349 31.6757 11.3446C28.5299 14.4655 24.4732 18.4975 20.3046 22.6604L37.3956 34.3706C38.1825 34.9097 38.5266 35.8985 38.2444 36.8096C37.9622 37.7208 37.1195 38.342 36.1656 38.342H13.5542C12.3523 38.342 11.378 37.3677 11.378 36.1658C11.378 34.9639 12.3523 33.9896 13.5542 33.9896H29.1394L17.1736 25.791C12.8535 30.1162 8.63153 34.3688 5.39071 37.6864C4.55088 38.5462 3.17311 38.5623 2.31336 37.7225C1.45361 36.8827 1.43747 35.5049 2.27729 34.6451C5.39069 31.4579 9.39747 27.4199 13.5215 23.2887L11.0392 21.5879C10.5054 21.2222 10.162 20.6378 10.1023 19.9934C10.0427 19.349 10.2729 18.7115 10.7305 18.254L16.3419 12.6425H6.01017V27.3368C6.01017 28.5386 5.03587 29.5129 3.834 29.5129C2.63214 29.5129 1.65784 28.5386 1.65784 27.3368V10.4663C1.65784 9.26445 2.63214 8.29014 3.834 8.29014H21.5957C22.4758 8.29014 23.2693 8.82035 23.6062 9.63353C23.943 10.4467 23.7568 11.3827 23.1344 12.0051L15.6609 19.4786L16.6517 20.1575C21.0261 15.7872 25.3176 11.5216 28.6103 8.25483C29.4317 7.43995 30.191 6.68717 30.8739 6.01035H3.834C2.63214 6.01035 1.65784 5.03605 1.65784 3.83419Z" fill="#5841DA"/>
</svg>
